<svg width="557" height="315" viewBox="0 0 557 315" fill="none" xmlns="http://www.w3.org/2000/svg">
<path d="M49.6217 66.5414L48.4714 47.2935C25.7582 36.8657 8.54846 19.3819 0 0.0223293C16.4654 2.16595 32.3217 6.34153 48.8322 8.48515C165.917 23.6468 358.246 23.1555 476.751 12.0578C503.457 9.55696 529.959 5.20274 555.943 0C561.762 0.267952 541.733 22.575 539.997 24.3836C536.568 27.934 531.674 32.8241 527.884 35.9949C515.095 46.713 502.284 46.1101 507.472 66.5414H412.739V99.7898H475.894V123.146H414.995V314.978H349.585V123.169H205.231V315H139.82V123.169H78.921V100.527C99.2208 100.281 119.521 100.058 139.82 99.8122V66.5638H49.5991L49.6217 66.5414ZM351.863 66.5414H202.998V99.7898H351.863V66.5414Z" fill="white"/>
</svg>
