<svg width="44" height="8" viewBox="0 0 44 8" fill="none" xmlns="http://www.w3.org/2000/svg">
<path d="M12.0481 2.85025H10.7874C10.7767 2.69014 10.7682 2.56343 10.7554 2.37083H12.0024V1.67123H10.2921C10.2295 1.67123 10.172 1.63783 10.1399 1.58402C9.98306 1.32165 9.42866 0.678546 9.13867 0.28693C13.0447 0.810774 16.9279 0.795121 20.836 0.2917C20.4401 0.917958 20.4762 0.84685 19.8242 1.57164C19.7787 1.62218 19.714 1.6511 19.6461 1.6511H17.8855V2.32447H19.1204C19.1353 2.50678 19.1468 2.64617 19.1624 2.83683H17.8862V6.86986H16.4953V2.87142H13.4661V6.86554H12.0483V2.85025H12.0481ZM16.5121 1.6918H13.4146V2.30046H16.5121V1.6918Z" fill="white"/>
<path d="M29.5609 6.87238H27.9177C27.4258 5.95483 26.9372 5.0431 26.4484 4.13137C26.4226 4.14031 26.3969 4.14926 26.3712 4.1582V6.85941H25.1602V2.34249H26.8001C27.2792 3.19876 27.7704 4.07696 28.2617 4.95515C28.2912 4.94933 28.3206 4.94337 28.3501 4.93756V2.34756H29.5611V6.87253L29.5609 6.87238Z" fill="white"/>
<path d="M24.297 4.71268C24.2937 4.75994 24.2888 4.80705 24.2809 4.85371C24.0396 6.2863 23.3998 7.05284 21.7399 6.97636C20.152 6.90317 19.3961 5.85354 19.5334 4.32211C19.6584 2.92753 20.5268 2.1835 21.9352 2.21779C23.5227 2.2564 24.2293 3.16798 24.2964 4.66587C24.3016 4.66677 24.2985 4.69211 24.2971 4.71253L24.297 4.71268ZM22.8149 5.21774C22.9093 4.77172 22.8992 4.30854 22.7748 3.86997C22.64 3.39472 22.3889 3.01384 21.7428 3.12982C20.995 3.26399 21.0074 3.96389 21.0074 4.58016C21.0074 5.23056 20.9888 5.91764 21.7793 6.04048C22.474 6.14841 22.7068 5.72862 22.815 5.21789L22.8149 5.21774Z" fill="white"/>
<path d="M5.70838 2.33099H7.08008C7.08008 3.15447 6.51765 6.25847 8.01285 6.03382C9.19008 5.85687 8.66634 3.21246 8.66634 2.34664H9.98908C10.302 2.98333 10.1664 4.91309 10.0373 5.62178C9.86767 6.5517 9.02819 6.91455 8.13813 6.97537C7.36591 7.02814 6.25057 6.83837 5.84348 6.09017C5.35292 5.18857 5.70853 3.34275 5.70853 2.33114L5.70838 2.33099Z" fill="white"/>
<path d="M3.61545 3.68423C3.2219 2.77413 1.66347 3.14831 2.32588 3.87295C2.99098 4.60058 4.96796 4.12474 4.98774 5.56643C5.01378 7.47174 0.674161 7.53897 0.662109 5.48339H1.91626C2.3424 6.30166 4.02135 6.16123 3.38899 5.29899C2.79219 4.48505 0.883212 5.14127 0.731297 3.70405C0.524627 1.74776 4.89192 1.62627 4.8028 3.68423H3.61515H3.61545Z" fill="white"/>
<path d="M41.3175 6.00026H43.3544V6.85535H39.5921C39.2801 5.58092 40.814 5.09986 41.5506 4.33153C42.5862 3.2515 41.0169 2.58857 40.7445 3.81544H39.5954C39.3042 2.12659 41.9684 1.80921 42.9399 2.67593C44.3317 3.91771 42.152 5.20272 41.2998 5.91663C41.3057 5.94451 41.3115 5.97239 41.3175 6.00026Z" fill="white"/>
<path d="M35.8578 5.99515V6.86708H32.0875C31.7746 5.66898 33.3838 5.05584 34.0848 4.32687C35.1223 3.24803 33.5341 2.59493 33.253 3.76039H32.0371C32.063 2.16143 34.4189 1.71525 35.4754 2.66425C36.8349 3.88576 34.7204 5.2143 33.8454 5.90168C33.8527 5.93284 33.8599 5.96399 33.8672 5.99515H35.8579H35.8578Z" fill="white"/>
<path d="M38.7545 6.87569H37.5111V4.08206C37.1638 4.06044 36.8697 4.04196 36.5371 4.02123V3.33132C37.1573 3.25753 37.5553 2.88023 37.7073 2.28155H38.7544V6.87554L38.7545 6.87569Z" fill="white"/>
</svg>
